<?xml version="1.0" encoding="UTF-8" standalone="no"?><svg xmlns="http://www.w3.org/2000/svg" xmlns:xlink="http://www.w3.org/1999/xlink" contentStyleType="text/css" height="954px" preserveAspectRatio="none" style="width:1300px;height:954px;background:#FFFFFF;" version="1.1" viewBox="0 0 1300 954" width="1300px" zoomAndPan="magnify"><defs/><g><!--cluster client--><g id="cluster_client"><path d="M378.5,6 L419.5,6 A3.75,3.75 0 0 1 422,8.5 L429,28.4883 L1290.5,28.4883 A2.5,2.5 0 0 1 1293,30.9883 L1293,689.42 A2.5,2.5 0 0 1 1290.5,691.92 L378.5,691.92 A2.5,2.5 0 0 1 376,689.42 L376,8.5 A2.5,2.5 0 0 1 378.5,6 " fill="none" style="stroke:#000000;stroke-width:1.5;"/><line style="stroke:#000000;stroke-width:1.5;" x1="376" x2="429" y1="28.4883" y2="28.4883"/><text fill="#000000" font-family="sans-serif" font-size="14" font-weight="bold" lengthAdjust="spacing" textLength="40" x="380" y="21.5352">client</text></g><!--cluster ui--><g id="cluster_ui"><path d="M826.5,49 L841.5,49 A3.75,3.75 0 0 1 844,51.5 L851,71.4883 L1266.5,71.4883 A2.5,2.5 0 0 1 1269,73.9883 L1269,432.14 A2.5,2.5 0 0 1 1266.5,434.64 L826.5,434.64 A2.5,2.5 0 0 1 824,432.14 L824,51.5 A2.5,2.5 0 0 1 826.5,49 " fill="none" style="stroke:#000000;stroke-width:1.5;"/><line style="stroke:#000000;stroke-width:1.5;" x1="824" x2="851" y1="71.4883" y2="71.4883"/><text fill="#000000" font-family="sans-serif" font-size="14" font-weight="bold" lengthAdjust="spacing" textLength="14" x="828" y="64.5352">ui</text></g><!--cluster shared--><g id="cluster_shared"><path d="M435.5,741.41 L484.5,741.41 A3.75,3.75 0 0 1 487,743.91 L494,763.8983 L1094.5,763.8983 A2.5,2.5 0 0 1 1097,766.3983 L1097,945.46 A2.5,2.5 0 0 1 1094.5,947.96 L435.5,947.96 A2.5,2.5 0 0 1 433,945.46 L433,743.91 A2.5,2.5 0 0 1 435.5,741.41 " fill="none" style="stroke:#000000;stroke-width:1.5;"/><line style="stroke:#000000;stroke-width:1.5;" x1="433" x2="494" y1="763.8983" y2="763.8983"/><text fill="#000000" font-family="sans-serif" font-size="14" font-weight="bold" lengthAdjust="spacing" textLength="48" x="437" y="756.9452">shared</text></g><!--cluster server--><g id="cluster_server"><path d="M8.5,228.46 L53.5,228.46 A3.75,3.75 0 0 1 56,230.96 L63,250.9483 L349.5,250.9483 A2.5,2.5 0 0 1 352,253.4483 L352,705.91 A2.5,2.5 0 0 1 349.5,708.41 L8.5,708.41 A2.5,2.5 0 0 1 6,705.91 L6,230.96 A2.5,2.5 0 0 1 8.5,228.46 " fill="none" style="stroke:#000000;stroke-width:1.5;"/><line style="stroke:#000000;stroke-width:1.5;" x1="6" x2="63" y1="250.9483" y2="250.9483"/><text fill="#000000" font-family="sans-serif" font-size="14" font-weight="bold" lengthAdjust="spacing" textLength="44" x="10" y="243.9952">server</text></g><!--class Client--><g id="elem_Client"><rect codeLine="4" fill="#F1F1F1" height="179.9063" id="Client" rx="2.5" ry="2.5" style="stroke:#181818;stroke-width:0.5;" width="340" x="392" y="263.46"/><ellipse cx="537.75" cy="279.46" fill="#ADD1B2" rx="11" ry="11" style="stroke:#181818;stroke-width:1.0;"/><path d="M540.2231,285.6031 Q539.6421,285.9019 539.0029,286.0513 Q538.3638,286.2007 537.6582,286.2007 Q535.1514,286.2007 533.8315,284.5489 Q532.5117,282.897 532.5117,279.7759 Q532.5117,276.6465 533.8315,274.9947 Q535.1514,273.3428 537.6582,273.3428 Q538.3638,273.3428 539.0112,273.4922 Q539.6587,273.6416 540.2231,273.9405 L540.2231,276.6631 Q539.5923,276.0821 538.9988,275.8123 Q538.4053,275.5425 537.7744,275.5425 Q536.4297,275.5425 535.7449,276.6092 Q535.0601,277.6758 535.0601,279.7759 Q535.0601,281.8677 535.7449,282.9344 Q536.4297,284.001 537.7744,284.001 Q538.4053,284.001 538.9988,283.7312 Q539.5923,283.4615 540.2231,282.8804 Z " fill="#000000"/><text fill="#000000" font-family="sans-serif" font-size="14" lengthAdjust="spacing" textLength="40" x="558.25" y="284.751">Client</text><line style="stroke:#181818;stroke-width:0.5;" x1="393" x2="731" y1="295.46" y2="295.46"/><rect fill="none" height="6" style="stroke:#C82930;stroke-width:1.0;" width="6" x="400" y="306.2041"/><text fill="#000000" font-family="sans-serif" font-size="14" lengthAdjust="spacing" textLength="147" x="412" y="312.9952">server: ServerHandler</text><rect fill="none" height="6" style="stroke:#C82930;stroke-width:1.0;" width="6" x="400" y="322.6924"/><text fill="#000000" font-family="sans-serif" font-size="14" lengthAdjust="spacing" textLength="97" x="412" y="329.4834">socket: Socket</text><rect fill="none" height="6" style="stroke:#C82930;stroke-width:1.0;" width="6" x="400" y="339.1807"/><text fill="#000000" font-family="sans-serif" font-size="14" lengthAdjust="spacing" textLength="119" x="412" y="345.9717">app: DrawingApp</text><rect fill="none" height="6" style="stroke:#C82930;stroke-width:1.0;" width="6" x="400" y="355.669"/><text fill="#000000" font-family="sans-serif" font-size="14" lengthAdjust="spacing" textLength="135" x="412" y="362.46">loginPage: JoinPage</text><line style="stroke:#181818;stroke-width:0.5;" x1="393" x2="731" y1="369.4131" y2="369.4131"/><ellipse cx="403" cy="383.1573" fill="#84BE84" rx="3" ry="3" style="stroke:#038048;stroke-width:1.0;"/><text fill="#000000" font-family="sans-serif" font-size="14" lengthAdjust="spacing" textLength="133" x="412" y="386.9483">main(args: String[])</text><ellipse cx="403" cy="399.6455" fill="#84BE84" rx="3" ry="3" style="stroke:#038048;stroke-width:1.0;"/><text fill="#000000" font-family="sans-serif" font-size="14" lengthAdjust="spacing" textLength="314" x="412" y="403.4366">connectToServer(ip: String, port: int): boolean</text><ellipse cx="403" cy="416.1338" fill="#84BE84" rx="3" ry="3" style="stroke:#038048;stroke-width:1.0;"/><text fill="#000000" font-family="sans-serif" font-size="14" lengthAdjust="spacing" textLength="57" x="412" y="419.9248">submit()</text><ellipse cx="403" cy="432.6221" fill="#84BE84" rx="3" ry="3" style="stroke:#038048;stroke-width:1.0;"/><text fill="#000000" font-family="sans-serif" font-size="14" lengthAdjust="spacing" textLength="251" x="412" y="436.4131">receiveMessages(message: Message)</text></g><!--class ServerHandler--><g id="elem_ServerHandler"><rect codeLine="15" fill="#F1F1F1" height="139.0625" id="ServerHandler" rx="2.5" ry="2.5" style="stroke:#181818;stroke-width:0.5;" width="255" x="424.5" y="536.86"/><ellipse cx="499.25" cy="557.1705" fill="#ADD1B2" rx="11" ry="11" style="stroke:#181818;stroke-width:1.0;"/><path d="M501.7231,563.3136 Q501.1421,563.6124 500.5029,563.7619 Q499.8638,563.9113 499.1582,563.9113 Q496.6514,563.9113 495.3315,562.2594 Q494.0117,560.6076 494.0117,557.4865 Q494.0117,554.3571 495.3315,552.7052 Q496.6514,551.0534 499.1582,551.0534 Q499.8638,551.0534 500.5112,551.2028 Q501.1587,551.3522 501.7231,551.651 L501.7231,554.3737 Q501.0923,553.7926 500.4988,553.5228 Q499.9053,553.2531 499.2744,553.2531 Q497.9297,553.2531 497.2449,554.3197 Q496.5601,555.3864 496.5601,557.4865 Q496.5601,559.5783 497.2449,560.6449 Q497.9297,561.7116 499.2744,561.7116 Q499.9053,561.7116 500.4988,561.4418 Q501.0923,561.172 501.7231,560.591 Z " fill="#000000"/><text fill="#000000" font-family="sans-serif" font-size="12" font-style="italic" lengthAdjust="spacing" textLength="66" x="535.25" y="553.4616">«Runnable»</text><text fill="#000000" font-family="sans-serif" font-size="14" lengthAdjust="spacing" textLength="97" x="519.75" y="569.528">ServerHandler</text><line style="stroke:#181818;stroke-width:0.5;" x1="425.5" x2="678.5" y1="577.4811" y2="577.4811"/><rect fill="none" height="6" style="stroke:#C82930;stroke-width:1.0;" width="6" x="432.5" y="588.2252"/><text fill="#000000" font-family="sans-serif" font-size="14" lengthAdjust="spacing" textLength="97" x="444.5" y="595.0163">socket: Socket</text><rect fill="none" height="6" style="stroke:#C82930;stroke-width:1.0;" width="6" x="432.5" y="604.7135"/><text fill="#000000" font-family="sans-serif" font-size="14" lengthAdjust="spacing" textLength="171" x="444.5" y="611.5045">out: ObjectOutputStream</text><rect fill="none" height="6" style="stroke:#C82930;stroke-width:1.0;" width="6" x="432.5" y="621.2018"/><text fill="#000000" font-family="sans-serif" font-size="14" lengthAdjust="spacing" textLength="149" x="444.5" y="627.9928">in: ObjectInputStream</text><line style="stroke:#181818;stroke-width:0.5;" x1="425.5" x2="678.5" y1="634.9459" y2="634.9459"/><ellipse cx="435.5" cy="648.6901" fill="#84BE84" rx="3" ry="3" style="stroke:#038048;stroke-width:1.0;"/><text fill="#000000" font-family="sans-serif" font-size="14" lengthAdjust="spacing" textLength="34" x="444.5" y="652.4811">run()</text><ellipse cx="435.5" cy="665.1784" fill="#84BE84" rx="3" ry="3" style="stroke:#038048;stroke-width:1.0;"/><text fill="#000000" font-family="sans-serif" font-size="14" lengthAdjust="spacing" textLength="229" x="444.5" y="668.9694">sendMessage(message: Message)</text></g><ellipse cx="769" cy="353.42" fill="#181818" rx="2" ry="2" style="stroke:#181818;stroke-width:1.0;"/><!--class DrawingApp--><g id="elem_DrawingApp"><rect codeLine="24" fill="#F1F1F1" height="130.4414" id="DrawingApp" rx="2.5" ry="2.5" style="stroke:#181818;stroke-width:0.5;" width="235" x="840.5" y="288.2"/><ellipse cx="911.25" cy="304.2" fill="#ADD1B2" rx="11" ry="11" style="stroke:#181818;stroke-width:1.0;"/><path d="M913.7231,310.3431 Q913.1421,310.6419 912.5029,310.7913 Q911.8638,310.9407 911.1582,310.9407 Q908.6514,310.9407 907.3315,309.2889 Q906.0117,307.637 906.0117,304.5159 Q906.0117,301.3865 907.3315,299.7347 Q908.6514,298.0828 911.1582,298.0828 Q911.8638,298.0828 912.5112,298.2322 Q913.1587,298.3816 913.7231,298.6805 L913.7231,301.4031 Q913.0923,300.8221 912.4988,300.5523 Q911.9053,300.2825 911.2744,300.2825 Q909.9297,300.2825 909.2449,301.3492 Q908.5601,302.4158 908.5601,304.5159 Q908.5601,306.6077 909.2449,307.6744 Q909.9297,308.741 911.2744,308.741 Q911.9053,308.741 912.4988,308.4712 Q913.0923,308.2015 913.7231,307.6204 Z " fill="#000000"/><text fill="#000000" font-family="sans-serif" font-size="14" lengthAdjust="spacing" textLength="85" x="931.75" y="309.491">DrawingApp</text><line style="stroke:#181818;stroke-width:0.5;" x1="841.5" x2="1074.5" y1="320.2" y2="320.2"/><rect fill="none" height="6" style="stroke:#C82930;stroke-width:1.0;" width="6" x="848.5" y="330.9441"/><text fill="#000000" font-family="sans-serif" font-size="14" lengthAdjust="spacing" textLength="151" x="860.5" y="337.7352">drawPanel: DrawPanel</text><rect fill="none" height="6" style="stroke:#C82930;stroke-width:1.0;" width="6" x="848.5" y="347.4324"/><text fill="#000000" font-family="sans-serif" font-size="14" lengthAdjust="spacing" textLength="118" x="860.5" y="354.2234">drawColor: Color</text><rect fill="none" height="6" style="stroke:#C82930;stroke-width:1.0;" width="6" x="848.5" y="363.9207"/><text fill="#000000" font-family="sans-serif" font-size="14" lengthAdjust="spacing" textLength="130" x="860.5" y="370.7117">canvas: CanvasInfo</text><line style="stroke:#181818;stroke-width:0.5;" x1="841.5" x2="1074.5" y1="377.6648" y2="377.6648"/><ellipse cx="851.5" cy="391.409" fill="#84BE84" rx="3" ry="3" style="stroke:#038048;stroke-width:1.0;"/><text fill="#000000" font-family="sans-serif" font-size="14" lengthAdjust="spacing" textLength="209" x="860.5" y="395.2">setCanvas(canvas: CanvasInfo)</text><ellipse cx="851.5" cy="407.8973" fill="#84BE84" rx="3" ry="3" style="stroke:#038048;stroke-width:1.0;"/><text fill="#000000" font-family="sans-serif" font-size="14" lengthAdjust="spacing" textLength="165" x="860.5" y="411.6883">getCanvas(): CanvasInfo</text></g><!--class DrawPanel--><g id="elem_DrawPanel"><rect codeLine="32" fill="#F1F1F1" height="64.4883" id="DrawPanel" rx="2.5" ry="2.5" style="stroke:#181818;stroke-width:0.5;" width="143" x="1110.5" y="321.17"/><ellipse cx="1143.05" cy="337.17" fill="#ADD1B2" rx="11" ry="11" style="stroke:#181818;stroke-width:1.0;"/><path d="M1145.5231,343.3131 Q1144.9421,343.6119 1144.3029,343.7613 Q1143.6638,343.9107 1142.9582,343.9107 Q1140.4514,343.9107 1139.1315,342.2589 Q1137.8117,340.607 1137.8117,337.4859 Q1137.8117,334.3565 1139.1315,332.7047 Q1140.4514,331.0528 1142.9582,331.0528 Q1143.6638,331.0528 1144.3112,331.2022 Q1144.9587,331.3516 1145.5231,331.6505 L1145.5231,334.3731 Q1144.8923,333.7921 1144.2988,333.5223 Q1143.7053,333.2525 1143.0744,333.2525 Q1141.7297,333.2525 1141.0449,334.3192 Q1140.3601,335.3858 1140.3601,337.4859 Q1140.3601,339.5777 1141.0449,340.6444 Q1141.7297,341.711 1143.0744,341.711 Q1143.7053,341.711 1144.2988,341.4412 Q1144.8923,341.1715 1145.5231,340.5904 Z " fill="#000000"/><text fill="#000000" font-family="sans-serif" font-size="14" lengthAdjust="spacing" textLength="72" x="1160.95" y="342.461">DrawPanel</text><line style="stroke:#181818;stroke-width:0.5;" x1="1111.5" x2="1252.5" y1="353.17" y2="353.17"/><line style="stroke:#181818;stroke-width:0.5;" x1="1111.5" x2="1252.5" y1="361.17" y2="361.17"/><ellipse cx="1121.5" cy="374.9141" fill="#84BE84" rx="3" ry="3" style="stroke:#038048;stroke-width:1.0;"/><text fill="#000000" font-family="sans-serif" font-size="14" lengthAdjust="spacing" textLength="117" x="1130.5" y="378.7052">undoLastStroke()</text></g><!--class JoinPage--><g id="elem_JoinPage"><rect codeLine="36" fill="#F1F1F1" height="97.4648" id="JoinPage" rx="2.5" ry="2.5" style="stroke:#181818;stroke-width:0.5;" width="164" x="858" y="84"/><ellipse cx="906.25" cy="100" fill="#ADD1B2" rx="11" ry="11" style="stroke:#181818;stroke-width:1.0;"/><path d="M908.7231,106.1431 Q908.1421,106.4419 907.5029,106.5913 Q906.8638,106.7407 906.1582,106.7407 Q903.6514,106.7407 902.3315,105.0889 Q901.0117,103.437 901.0117,100.3159 Q901.0117,97.1865 902.3315,95.5347 Q903.6514,93.8828 906.1582,93.8828 Q906.8638,93.8828 907.5112,94.0322 Q908.1587,94.1816 908.7231,94.4805 L908.7231,97.2031 Q908.0923,96.6221 907.4988,96.3523 Q906.9053,96.0825 906.2744,96.0825 Q904.9297,96.0825 904.2449,97.1492 Q903.5601,98.2158 903.5601,100.3159 Q903.5601,102.4077 904.2449,103.4744 Q904.9297,104.541 906.2744,104.541 Q906.9053,104.541 907.4988,104.2712 Q908.0923,104.0015 908.7231,103.4204 Z " fill="#000000"/><text fill="#000000" font-family="sans-serif" font-size="14" lengthAdjust="spacing" textLength="59" x="926.75" y="105.291">JoinPage</text><line style="stroke:#181818;stroke-width:0.5;" x1="859" x2="1021" y1="116" y2="116"/><rect fill="none" height="6" style="stroke:#C82930;stroke-width:1.0;" width="6" x="866" y="126.7441"/><text fill="#000000" font-family="sans-serif" font-size="14" lengthAdjust="spacing" textLength="122" x="878" y="133.5352">ipField: JTextField</text><rect fill="none" height="6" style="stroke:#C82930;stroke-width:1.0;" width="6" x="866" y="143.2324"/><text fill="#000000" font-family="sans-serif" font-size="14" lengthAdjust="spacing" textLength="138" x="878" y="150.0234">portField: JTextField</text><rect fill="none" height="6" style="stroke:#C82930;stroke-width:1.0;" width="6" x="866" y="159.7207"/><text fill="#000000" font-family="sans-serif" font-size="14" lengthAdjust="spacing" textLength="128" x="878" y="166.5117">joinButton: JButton</text><line style="stroke:#181818;stroke-width:0.5;" x1="859" x2="1021" y1="173.4648" y2="173.4648"/></g><!--class shared.CanvasInfo--><g id="elem_shared.CanvasInfo"><rect codeLine="93" fill="#F1F1F1" height="155.5508" id="shared.CanvasInfo" rx="2.5" ry="2.5" style="stroke:#181818;stroke-width:0.5;" width="245" x="835.5" y="776.41"/><ellipse cx="915.75" cy="796.7205" fill="#ADD1B2" rx="11" ry="11" style="stroke:#181818;stroke-width:1.0;"/><path d="M918.2231,802.8636 Q917.6421,803.1624 917.0029,803.3119 Q916.3638,803.4613 915.6582,803.4613 Q913.1514,803.4613 911.8315,801.8094 Q910.5117,800.1576 910.5117,797.0365 Q910.5117,793.9071 911.8315,792.2552 Q913.1514,790.6034 915.6582,790.6034 Q916.3638,790.6034 917.0112,790.7528 Q917.6587,790.9022 918.2231,791.201 L918.2231,793.9237 Q917.5923,793.3426 916.9988,793.0728 Q916.4053,792.8031 915.7744,792.8031 Q914.4297,792.8031 913.7449,793.8697 Q913.0601,794.9364 913.0601,797.0365 Q913.0601,799.1283 913.7449,800.1949 Q914.4297,801.2616 915.7744,801.2616 Q916.4053,801.2616 916.9988,800.9918 Q917.5923,800.722 918.2231,800.141 Z " fill="#000000"/><text fill="#000000" font-family="sans-serif" font-size="12" font-style="italic" lengthAdjust="spacing" textLength="78" x="935.25" y="793.0116">«Serializable»</text><text fill="#000000" font-family="sans-serif" font-size="14" lengthAdjust="spacing" textLength="76" x="936.25" y="809.078">CanvasInfo</text><line style="stroke:#181818;stroke-width:0.5;" x1="836.5" x2="1079.5" y1="817.0311" y2="817.0311"/><rect fill="none" height="6" style="stroke:#C82930;stroke-width:1.0;" width="6" x="843.5" y="827.7752"/><text fill="#000000" font-family="sans-serif" font-size="14" lengthAdjust="spacing" textLength="182" x="855.5" y="834.5663">currentStroke: List&lt;Point&gt;</text><rect fill="none" height="6" style="stroke:#C82930;stroke-width:1.0;" width="6" x="843.5" y="844.2635"/><text fill="#000000" font-family="sans-serif" font-size="14" lengthAdjust="spacing" textLength="219" x="855.5" y="851.0545">currentLayer: List&lt;List&lt;Point&gt;&gt;</text><rect fill="none" height="6" style="stroke:#C82930;stroke-width:1.0;" width="6" x="843.5" y="860.7518"/><text fill="#000000" font-family="sans-serif" font-size="14" lengthAdjust="spacing" textLength="218" x="855.5" y="867.5428">layers: List&lt;List&lt;List&lt;Point&gt;&gt;&gt;</text><line style="stroke:#181818;stroke-width:0.5;" x1="836.5" x2="1079.5" y1="874.4959" y2="874.4959"/><ellipse cx="846.5" cy="888.2401" fill="#84BE84" rx="3" ry="3" style="stroke:#038048;stroke-width:1.0;"/><text fill="#000000" font-family="sans-serif" font-size="14" lengthAdjust="spacing" textLength="117" x="855.5" y="892.0311">createNewLayer()</text><ellipse cx="846.5" cy="904.7284" fill="#84BE84" rx="3" ry="3" style="stroke:#038048;stroke-width:1.0;"/><text fill="#000000" font-family="sans-serif" font-size="14" lengthAdjust="spacing" textLength="150" x="855.5" y="908.5194">addToStroke(p: Point)</text><ellipse cx="846.5" cy="921.2166" fill="#84BE84" rx="3" ry="3" style="stroke:#038048;stroke-width:1.0;"/><text fill="#000000" font-family="sans-serif" font-size="14" lengthAdjust="spacing" textLength="138" x="855.5" y="925.0077">createEmptyStroke()</text></g><!--class shared.Message--><g id="elem_shared.Message"><rect codeLine="84" fill="#F1F1F1" height="155.5508" id="shared.Message" rx="2.5" ry="2.5" style="stroke:#181818;stroke-width:0.5;" width="191" x="449.5" y="776.41"/><ellipse cx="503.75" cy="796.7205" fill="#ADD1B2" rx="11" ry="11" style="stroke:#181818;stroke-width:1.0;"/><path d="M506.2231,802.8636 Q505.6421,803.1624 505.0029,803.3119 Q504.3638,803.4613 503.6582,803.4613 Q501.1514,803.4613 499.8315,801.8094 Q498.5117,800.1576 498.5117,797.0365 Q498.5117,793.9071 499.8315,792.2552 Q501.1514,790.6034 503.6582,790.6034 Q504.3638,790.6034 505.0112,790.7528 Q505.6587,790.9022 506.2231,791.201 L506.2231,793.9237 Q505.5923,793.3426 504.9988,793.0728 Q504.4053,792.8031 503.7744,792.8031 Q502.4297,792.8031 501.7449,793.8697 Q501.0601,794.9364 501.0601,797.0365 Q501.0601,799.1283 501.7449,800.1949 Q502.4297,801.2616 503.7744,801.2616 Q504.4053,801.2616 504.9988,800.9918 Q505.5923,800.722 506.2231,800.141 Z " fill="#000000"/><text fill="#000000" font-family="sans-serif" font-size="12" font-style="italic" lengthAdjust="spacing" textLength="78" x="522.25" y="793.0116">«Serializable»</text><text fill="#000000" font-family="sans-serif" font-size="14" lengthAdjust="spacing" textLength="59" x="531.75" y="809.078">Message</text><line style="stroke:#181818;stroke-width:0.5;" x1="450.5" x2="639.5" y1="817.0311" y2="817.0311"/><rect fill="none" height="6" style="stroke:#C82930;stroke-width:1.0;" width="6" x="457.5" y="827.7752"/><text fill="#000000" font-family="sans-serif" font-size="14" lengthAdjust="spacing" textLength="76" x="469.5" y="834.5663">text: String</text><rect fill="none" height="6" style="stroke:#C82930;stroke-width:1.0;" width="6" x="457.5" y="844.2635"/><text fill="#000000" font-family="sans-serif" font-size="14" lengthAdjust="spacing" textLength="130" x="469.5" y="851.0545">canvas: CanvasInfo</text><rect fill="none" height="6" style="stroke:#C82930;stroke-width:1.0;" width="6" x="457.5" y="860.7518"/><text fill="#000000" font-family="sans-serif" font-size="14" lengthAdjust="spacing" textLength="129" x="469.5" y="867.5428">type: MessageType</text><line style="stroke:#181818;stroke-width:0.5;" x1="450.5" x2="639.5" y1="874.4959" y2="874.4959"/><ellipse cx="460.5" cy="888.2401" fill="#84BE84" rx="3" ry="3" style="stroke:#038048;stroke-width:1.0;"/><text fill="#000000" font-family="sans-serif" font-size="14" lengthAdjust="spacing" textLength="112" x="469.5" y="892.0311">getText(): String</text><ellipse cx="460.5" cy="904.7284" fill="#84BE84" rx="3" ry="3" style="stroke:#038048;stroke-width:1.0;"/><text fill="#000000" font-family="sans-serif" font-size="14" lengthAdjust="spacing" textLength="165" x="469.5" y="908.5194">getCanvas(): CanvasInfo</text><ellipse cx="460.5" cy="921.2166" fill="#84BE84" rx="3" ry="3" style="stroke:#038048;stroke-width:1.0;"/><text fill="#000000" font-family="sans-serif" font-size="14" lengthAdjust="spacing" textLength="165" x="469.5" y="925.0077">getType(): MessageType</text></g><!--class shared.MessageType--><g id="elem_shared.MessageType"><rect codeLine="102" fill="#F1F1F1" height="97.4648" id="shared.MessageType" rx="2.5" ry="2.5" style="stroke:#181818;stroke-width:0.5;" width="124" x="676" y="805.45"/><ellipse cx="691" cy="821.45" fill="#EB937F" rx="11" ry="11" style="stroke:#181818;stroke-width:1.0;"/><path d="M694.6143,827.95 L686.8945,827.95 L686.8945,815.5569 L694.6143,815.5569 L694.6143,817.7151 L689.3433,817.7151 L689.3433,820.388 L694.1162,820.388 L694.1162,822.5462 L689.3433,822.5462 L689.3433,825.7918 L694.6143,825.7918 Z " fill="#000000"/><text fill="#000000" font-family="sans-serif" font-size="14" lengthAdjust="spacing" textLength="92" x="705" y="826.741">MessageType</text><line style="stroke:#181818;stroke-width:0.5;" x1="677" x2="799" y1="837.45" y2="837.45"/><text fill="#000000" font-family="sans-serif" font-size="14" lengthAdjust="spacing" textLength="35" x="682" y="854.9852">TEXT</text><text fill="#000000" font-family="sans-serif" font-size="14" lengthAdjust="spacing" textLength="90" x="682" y="871.4734">CANVASINFO</text><text fill="#000000" font-family="sans-serif" font-size="14" lengthAdjust="spacing" textLength="107" x="682" y="887.9617">NOTYOURTURN</text><line style="stroke:#181818;stroke-width:0.5;" x1="677" x2="799" y1="894.9148" y2="894.9148"/></g><!--class Server--><g id="elem_Server"><rect codeLine="56" fill="#F1F1F1" height="179.9063" id="Server" rx="2.5" ry="2.5" style="stroke:#181818;stroke-width:0.5;" width="314" x="22" y="263.46"/><ellipse cx="153.25" cy="279.46" fill="#ADD1B2" rx="11" ry="11" style="stroke:#181818;stroke-width:1.0;"/><path d="M155.7231,285.6031 Q155.1421,285.9019 154.5029,286.0513 Q153.8638,286.2007 153.1582,286.2007 Q150.6514,286.2007 149.3315,284.5489 Q148.0117,282.897 148.0117,279.7759 Q148.0117,276.6465 149.3315,274.9947 Q150.6514,273.3428 153.1582,273.3428 Q153.8638,273.3428 154.5112,273.4922 Q155.1587,273.6416 155.7231,273.9405 L155.7231,276.6631 Q155.0923,276.0821 154.4988,275.8123 Q153.9053,275.5425 153.2744,275.5425 Q151.9297,275.5425 151.2449,276.6092 Q150.5601,277.6758 150.5601,279.7759 Q150.5601,281.8677 151.2449,282.9344 Q151.9297,284.001 153.2744,284.001 Q153.9053,284.001 154.4988,283.7312 Q155.0923,283.4615 155.7231,282.8804 Z " fill="#000000"/><text fill="#000000" font-family="sans-serif" font-size="14" lengthAdjust="spacing" textLength="43" x="173.75" y="284.751">Server</text><line style="stroke:#181818;stroke-width:0.5;" x1="23" x2="335" y1="295.46" y2="295.46"/><rect fill="none" height="6" style="stroke:#C82930;stroke-width:1.0;" width="6" x="30" y="306.2041"/><text fill="#000000" font-family="sans-serif" font-size="14" lengthAdjust="spacing" textLength="288" x="42" y="312.9952">clients: HashMap&lt;Integer, ClientHandler&gt;</text><rect fill="none" height="6" style="stroke:#C82930;stroke-width:1.0;" width="6" x="30" y="322.6924"/><text fill="#000000" font-family="sans-serif" font-size="14" lengthAdjust="spacing" textLength="132" x="42" y="329.4834">nextAvailableId: int</text><rect fill="none" height="6" style="stroke:#C82930;stroke-width:1.0;" width="6" x="30" y="339.1807"/><text fill="#000000" font-family="sans-serif" font-size="14" lengthAdjust="spacing" textLength="111" x="42" y="345.9717">turnCounter: int</text><line style="stroke:#181818;stroke-width:0.5;" x1="23" x2="335" y1="352.9248" y2="352.9248"/><ellipse cx="33" cy="366.669" fill="#84BE84" rx="3" ry="3" style="stroke:#038048;stroke-width:1.0;"/><text fill="#000000" font-family="sans-serif" font-size="14" lengthAdjust="spacing" textLength="133" x="42" y="370.46">main(args: String[])</text><ellipse cx="33" cy="383.1573" fill="#84BE84" rx="3" ry="3" style="stroke:#038048;stroke-width:1.0;"/><text fill="#000000" font-family="sans-serif" font-size="14" lengthAdjust="spacing" textLength="264" x="42" y="386.9483">broadcastMessage(message: Message)</text><ellipse cx="33" cy="399.6455" fill="#84BE84" rx="3" ry="3" style="stroke:#038048;stroke-width:1.0;"/><text fill="#000000" font-family="sans-serif" font-size="14" lengthAdjust="spacing" textLength="154" x="42" y="403.4366">kickPlayer(clientId: int)</text><ellipse cx="33" cy="416.1338" fill="#84BE84" rx="3" ry="3" style="stroke:#038048;stroke-width:1.0;"/><text fill="#000000" font-family="sans-serif" font-size="14" lengthAdjust="spacing" textLength="74" x="42" y="419.9248">nextTurn()</text><ellipse cx="33" cy="432.6221" fill="#84BE84" rx="3" ry="3" style="stroke:#038048;stroke-width:1.0;"/><text fill="#000000" font-family="sans-serif" font-size="14" lengthAdjust="spacing" textLength="91" x="42" y="436.4131">getTurn(): int</text></g><!--class ClientHandler--><g id="elem_ClientHandler"><rect codeLine="67" fill="#F1F1F1" height="172.0391" id="ClientHandler" rx="2.5" ry="2.5" style="stroke:#181818;stroke-width:0.5;" width="255" x="66.5" y="520.37"/><ellipse cx="142.75" cy="540.6805" fill="#ADD1B2" rx="11" ry="11" style="stroke:#181818;stroke-width:1.0;"/><path d="M145.2231,546.8236 Q144.6421,547.1224 144.0029,547.2719 Q143.3638,547.4213 142.6582,547.4213 Q140.1514,547.4213 138.8315,545.7694 Q137.5117,544.1176 137.5117,540.9965 Q137.5117,537.8671 138.8315,536.2152 Q140.1514,534.5634 142.6582,534.5634 Q143.3638,534.5634 144.0112,534.7128 Q144.6587,534.8622 145.2231,535.161 L145.2231,537.8837 Q144.5923,537.3026 143.9988,537.0328 Q143.4053,536.7631 142.7744,536.7631 Q141.4297,536.7631 140.7449,537.8297 Q140.0601,538.8964 140.0601,540.9965 Q140.0601,543.0883 140.7449,544.1549 Q141.4297,545.2216 142.7744,545.2216 Q143.4053,545.2216 143.9988,544.9518 Q144.5923,544.682 145.2231,544.101 Z " fill="#000000"/><text fill="#000000" font-family="sans-serif" font-size="12" font-style="italic" lengthAdjust="spacing" textLength="66" x="177.25" y="536.9716">«Runnable»</text><text fill="#000000" font-family="sans-serif" font-size="14" lengthAdjust="spacing" textLength="94" x="163.25" y="553.038">ClientHandler</text><line style="stroke:#181818;stroke-width:0.5;" x1="67.5" x2="320.5" y1="560.9911" y2="560.9911"/><rect fill="none" height="6" style="stroke:#C82930;stroke-width:1.0;" width="6" x="74.5" y="571.7352"/><text fill="#000000" font-family="sans-serif" font-size="14" lengthAdjust="spacing" textLength="97" x="86.5" y="578.5263">socket: Socket</text><rect fill="none" height="6" style="stroke:#C82930;stroke-width:1.0;" width="6" x="74.5" y="588.2235"/><text fill="#000000" font-family="sans-serif" font-size="14" lengthAdjust="spacing" textLength="171" x="86.5" y="595.0145">out: ObjectOutputStream</text><rect fill="none" height="6" style="stroke:#C82930;stroke-width:1.0;" width="6" x="74.5" y="604.7118"/><text fill="#000000" font-family="sans-serif" font-size="14" lengthAdjust="spacing" textLength="149" x="86.5" y="611.5028">in: ObjectInputStream</text><rect fill="none" height="6" style="stroke:#C82930;stroke-width:1.0;" width="6" x="74.5" y="621.2001"/><text fill="#000000" font-family="sans-serif" font-size="14" lengthAdjust="spacing" textLength="39" x="86.5" y="627.9911">id: int</text><line style="stroke:#181818;stroke-width:0.5;" x1="67.5" x2="320.5" y1="634.9442" y2="634.9442"/><ellipse cx="77.5" cy="648.6884" fill="#84BE84" rx="3" ry="3" style="stroke:#038048;stroke-width:1.0;"/><text fill="#000000" font-family="sans-serif" font-size="14" lengthAdjust="spacing" textLength="34" x="86.5" y="652.4794">run()</text><ellipse cx="77.5" cy="665.1766" fill="#84BE84" rx="3" ry="3" style="stroke:#038048;stroke-width:1.0;"/><text fill="#000000" font-family="sans-serif" font-size="14" lengthAdjust="spacing" textLength="229" x="86.5" y="668.9677">sendMessage(message: Message)</text><ellipse cx="77.5" cy="681.6649" fill="#84BE84" rx="3" ry="3" style="stroke:#038048;stroke-width:1.0;"/><text fill="#000000" font-family="sans-serif" font-size="14" lengthAdjust="spacing" textLength="71" x="86.5" y="685.4559">getId(): int</text></g><!--link Client to ServerHandler--><g id="link_Client_ServerHandler"><path codeLine="45" d="M558.19,450.1 C557.13,476.65 556,505.08 554.99,530.27 " fill="none" id="Client-ServerHandler" style="stroke:#181818;stroke-width:1.0;"/><path d="M554.1934,449.9561 L561.8672,458.2695 M562.187,450.2759 L553.8736,457.9497 " fill="none" style="stroke:#181818;stroke-width:1.0;"/><polygon fill="#181818" points="554.8,535.09,559.1565,526.2571,554.9998,530.094,551.1629,525.9373,554.8,535.09" style="stroke:#181818;stroke-width:1.0;"/><text fill="#000000" font-family="sans-serif" font-size="13" lengthAdjust="spacing" textLength="69" x="558" y="486.9384">new thread</text></g><!--link JoinPage to apoint11--><g id="link_JoinPage_apoint11"><path d="M863.31,181.85 C848.98,193.25 835.05,206.28 824,220.46 C788,266.67 771.63,339.82 769.3,350.97 " fill="none" id="JoinPage-apoint11" style="stroke:#181818;stroke-width:1.0;"/></g><!--link apoint11 to DrawingApp--><g id="link_apoint11_DrawingApp"><path d="M771.21,353.42 C794.2,353.42 817.18,353.42 840.16,353.42 " fill="none" id="apoint11-DrawingApp" style="stroke:#181818;stroke-width:1.0;"/></g><!--link apoint11 to Client--><g id="link_apoint11_Client"><path d="M766.7,353.42 C755.2,353.42 743.71,353.42 732.21,353.42 " fill="none" id="apoint11-Client" style="stroke:#181818;stroke-width:1.0;"/></g><!--reverse link DrawingApp to DrawPanel--><g id="link_DrawingApp_DrawPanel"><path codeLine="48" d="M1089.96,353.42 C1096.69,353.42 1103.42,353.42 1110.16,353.42 " fill="none" id="DrawingApp-backto-DrawPanel" style="stroke:#181818;stroke-width:1.0;"/><polygon fill="#181818" points="1077.2,353.42,1083.2,357.42,1089.2,353.42,1083.2,349.42,1077.2,353.42" style="stroke:#181818;stroke-width:1.0;"/></g><!--reverse link DrawingApp to shared.CanvasInfo--><g id="link_DrawingApp_shared.CanvasInfo"><path codeLine="49" d="M958,433.34 C958,527.19 958,682.8 958,775.92 " fill="none" id="DrawingApp-backto-shared.CanvasInfo" style="stroke:#181818;stroke-width:1.0;"/><polygon fill="#181818" points="958,420.62,954,426.62,958,432.62,962,426.62,958,420.62" style="stroke:#181818;stroke-width:1.0;"/></g><!--link ServerHandler to shared.Message--><g id="link_ServerHandler_shared.Message"><path codeLine="50" d="M550.04,676.18 C549.35,700.6 548.55,728.59 547.8,754.98 " fill="none" id="ServerHandler-to-shared.Message" style="stroke:#181818;stroke-width:1.0;"/><polygon fill="none" points="554.8,754.88,547.24,774.68,540.81,754.48,554.8,754.88" style="stroke:#181818;stroke-width:1.0;"/></g><!--link JoinPage to DrawingApp--><g id="link_JoinPage_DrawingApp"><path codeLine="51" d="M944.47,188.06 C946.8,216.31 949.67,251.19 952.17,281.54 " fill="none" id="JoinPage-DrawingApp" style="stroke:#181818;stroke-width:1.0;stroke-dasharray:7.0,7.0;"/><polygon fill="#181818" points="944.07,183.23,940.829,192.5303,944.484,188.2128,948.8015,191.8679,944.07,183.23" style="stroke:#181818;stroke-width:1.0;"/><polygon fill="#181818" points="952.57,286.43,955.8374,277.1389,952.1701,281.446,947.8631,277.7787,952.57,286.43" style="stroke:#181818;stroke-width:1.0;"/></g><!--link Server to ClientHandler--><g id="link_Server_ClientHandler"><path codeLine="77" d="M184.72,450.08 C185.97,471.01 187.29,493.11 188.53,513.87 " fill="none" id="Server-ClientHandler" style="stroke:#181818;stroke-width:1.0;"/><path d="M180.7266,450.3506 L189.1914,457.8571 M188.7123,449.8715 L181.2058,458.3362 " fill="none" style="stroke:#181818;stroke-width:1.0;"/><polygon fill="#181818" points="188.82,518.76,192.2722,509.536,188.5197,513.769,184.2867,510.0165,188.82,518.76" style="stroke:#181818;stroke-width:1.0;"/><text fill="#000000" font-family="sans-serif" font-size="13" lengthAdjust="spacing" textLength="103" x="187.95" y="486.9384">multiple threads</text></g><!--link ClientHandler to shared.Message--><g id="link_ClientHandler_shared.Message"><path codeLine="78" d="M315.78,692.67 C353.38,719 394.63,747.88 431.64,773.8 " fill="none" id="ClientHandler-to-shared.Message" style="stroke:#181818;stroke-width:1.0;"/><polygon fill="none" points="435.55,767.99,447.92,785.2,427.52,779.46,435.55,767.99" style="stroke:#181818;stroke-width:1.0;"/></g><!--reverse link shared.Message to shared.CanvasInfo--><g id="link_shared.Message_shared.CanvasInfo"><path codeLine="108" d="M620.78,766.11 C632.91,754.37 645.83,743.07 659,733.41 C665.97,728.29 668.07,726.85 676.5,724.91 C703.14,718.78 772.86,718.78 799.5,724.91 C833.41,732.71 864.59,753.48 890.15,776.15 " fill="none" id="shared.Message-backto-shared.CanvasInfo" style="stroke:#181818;stroke-width:1.0;"/><polygon fill="#181818" points="611.85,774.98,618.9254,773.5878,620.3616,766.5211,613.2862,767.9134,611.85,774.98" style="stroke:#181818;stroke-width:1.0;"/></g><!--reverse link shared.Message to shared.MessageType--><g id="link_shared.Message_shared.MessageType"><path codeLine="109" d="M655.22,854.18 C662.04,854.18 668.87,854.18 675.7,854.18 " fill="none" id="shared.Message-backto-shared.MessageType" style="stroke:#181818;stroke-width:1.0;"/><polygon fill="#181818" points="642.26,854.18,648.26,858.18,654.26,854.18,648.26,850.18,642.26,854.18" style="stroke:#181818;stroke-width:1.0;"/></g><!--SRC=[lLLHRzem47xdL_Wnh4r_G8GYCTQgL2sWDfqsJNimYKTT73ko7MZNxR_lOYTm3eXrByi3CVUTpz_TVRvG8TIsv2zShWQ3YkPhkc8a5vn9Izu619vSK6F819kQ9oQ6wGtJ2Nbmxsig2y4qnbM-PXPmzqO0hQg4VD9q2uUEgmeXGgsuN025XDmelzgXPwIaN4PKhmp4j1esV_i-H72kf6IvpPGd5F6gypidbTB0X4ixJCXIAS6eH3jDlIovZN0mpNB6D-oE6GCaJ5JwHK9QY_VzFK0b2kf0HgFxMagw52nDtzvJ5LM3TRvyXXJcjQrg2zmPBP47bvt3L1xYmBcMGGw6oQAbUvf_r_UQemRxfFPj2dfVW7b19HE-aMxPWoTAA527Uo4eft93eOCJzvxA7ofWRBqzEdJ3cQrsViE3I45FTkGG-pDIoqBTKjDKKArPTAINdVg2f7brnPaeG9iPUx5kZT16OgVmPmZviRPMGHTl_A8z5vtkVzlBzXB7QKzL2P5iI-mJTDx7tX6Du_wLYZhi7273nj77Tqweln_YNYy339JxH3KhBdhb3ld5yQ-qSsoL5j8SNLoac2ZalHixVg04O-S1cre1EV8WZMjgdkveDPfAorPCdxTfjLHIj4L2EyORoaLp7QU56mG8jhMM4rL361r2VnqvIwreaOEIJbypxxpc-NeXw2kC9fz3omJxD4mpe1FrrEvjUtQ1M8EyWy53_ila0Rpe5-xVPz4krsbn9DDM2EvAXFacfAo5vPLWxRqmw0wTqcKZlRts71Peh_M3WiBXd0h-yqXHBJIiqyRxfXpiUQtsoMVmfzTh2DbKe1VqzDJRxuPu3TuF7ofcj_bqTdcjDLJHpyc4t79ZHmkuoZOzTBfjbDtw84ViwSHli0zsJF6t71ffsOnjNTH0IRGeu1Fl9pTyuTtcuS7MoxAohyVcEvDrYOk3ycsUxF9B5XWcuzddySDqTZKFpBDvzdN-U9yztizmz4upC4jx3K88RitlFm00]--></g></svg>